<mxfile host="drawio-plugin" modified="2023-06-29T16:12:37.130Z" agent="5.0 (Macintosh; Intel Mac OS X 10_16_0) AppleWebKit/537.36 (KHTML, like Gecko) Chrome/81.0.4044.113 Safari/537.36" etag="JwH0oWGc_DB9XmYUhrcd" version="13.7.9" type="embed"><diagram id="JgaQJCC27X6wyLcoRcEl" name="Page-1"><mxGraphModel dx="936" dy="553" grid="0" gridSize="10" guides="1" tooltips="1" connect="1" arrows="1" fold="1" page="1" pageScale="1" pageWidth="850" pageHeight="1100" background="#FFFFFF" math="0" shadow="0"><root><mxCell id="0"/><mxCell id="1" parent="0"/><mxCell id="7" value="" style="rounded=0;whiteSpace=wrap;html=1;strokeColor=#000000;fillColor=none;" parent="1" vertex="1"><mxGeometry x="318" y="20" width="472" height="450" as="geometry"/></mxCell><mxCell id="29" value="" style="rounded=0;whiteSpace=wrap;html=1;strokeColor=#000000;gradientColor=none;fillColor=#D5E8D4;" vertex="1" parent="1"><mxGeometry x="530" y="30" width="250" height="340" as="geometry"/></mxCell><mxCell id="2" value="&lt;font color=&quot;#000000&quot;&gt;XML&lt;/font&gt;" style="rounded=0;whiteSpace=wrap;html=1;backgroundOutline=0;strokeColor=#000000;fillColor=none;" parent="1" vertex="1"><mxGeometry x="40" y="248" width="80" height="30" as="geometry"/></mxCell><mxCell id="3" value="&lt;font color=&quot;#000000&quot;&gt;注解&lt;/font&gt;" style="rounded=0;whiteSpace=wrap;html=1;strokeColor=#000000;fillColor=none;" parent="1" vertex="1"><mxGeometry x="40" y="298" width="80" height="29.5" as="geometry"/></mxCell><mxCell id="4" value="&lt;font color=&quot;#000000&quot;&gt;Java Config&lt;/font&gt;" style="rounded=0;whiteSpace=wrap;html=1;fillColor=none;strokeColor=#000000;" parent="1" vertex="1"><mxGeometry x="40" y="348" width="80" height="29" as="geometry"/></mxCell><mxCell id="5" value="&lt;font color=&quot;#000000&quot;&gt;BeanDefinitionReader&lt;br&gt;&lt;br&gt;读取Bean定义配置的接口或者说规范约束&lt;/font&gt;" style="rounded=0;whiteSpace=wrap;html=1;strokeColor=#000000;fillColor=none;" parent="1" vertex="1"><mxGeometry x="160" y="248" width="120" height="129" as="geometry"/></mxCell><mxCell id="8" value="&lt;font color=&quot;#000000&quot;&gt;BeanDefinition&lt;/font&gt;" style="rounded=0;whiteSpace=wrap;html=1;fillColor=none;strokeColor=#000000;" parent="1" vertex="1"><mxGeometry x="341" y="293" width="120" height="40" as="geometry"/></mxCell><mxCell id="9" value="&lt;font color=&quot;#000000&quot;&gt;BeanFactoryPostProcessor&lt;/font&gt;" style="rounded=0;whiteSpace=wrap;html=1;strokeColor=#000000;fillColor=none;gradientColor=none;" vertex="1" parent="1"><mxGeometry x="325" y="228" width="150" height="29" as="geometry"/></mxCell><mxCell id="10" value="&lt;font color=&quot;#000000&quot;&gt;BeanFactoryPostProcessor&lt;/font&gt;" style="rounded=0;whiteSpace=wrap;html=1;strokeColor=#000000;fillColor=none;gradientColor=none;" vertex="1" parent="1"><mxGeometry x="324" y="127" width="150" height="30" as="geometry"/></mxCell><mxCell id="11" value="" style="endArrow=classic;html=1;" edge="1" parent="1"><mxGeometry width="50" height="50" relative="1" as="geometry"><mxPoint x="290" y="278" as="sourcePoint"/><mxPoint x="340" y="308" as="targetPoint"/></mxGeometry></mxCell><mxCell id="13" value="" style="endArrow=classic;html=1;" edge="1" parent="1"><mxGeometry width="50" height="50" relative="1" as="geometry"><mxPoint x="350" y="298" as="sourcePoint"/><mxPoint x="400" y="248" as="targetPoint"/></mxGeometry></mxCell><mxCell id="14" value="" style="endArrow=classic;html=1;exitX=1;exitY=0.5;exitDx=0;exitDy=0;strokeColor=#000000;" edge="1" parent="1" source="2"><mxGeometry width="50" height="50" relative="1" as="geometry"><mxPoint x="140" y="358" as="sourcePoint"/><mxPoint x="160" y="289" as="targetPoint"/></mxGeometry></mxCell><mxCell id="15" value="" style="endArrow=classic;html=1;exitX=1;exitY=0.5;exitDx=0;exitDy=0;entryX=0;entryY=0.5;entryDx=0;entryDy=0;strokeColor=#000000;" edge="1" parent="1" source="3" target="5"><mxGeometry width="50" height="50" relative="1" as="geometry"><mxPoint x="120" y="358" as="sourcePoint"/><mxPoint x="170" y="308" as="targetPoint"/></mxGeometry></mxCell><mxCell id="16" value="" style="endArrow=classic;html=1;strokeColor=#000000;exitX=1;exitY=0.5;exitDx=0;exitDy=0;entryX=-0.017;entryY=0.698;entryDx=0;entryDy=0;entryPerimeter=0;" edge="1" parent="1" source="4" target="5"><mxGeometry width="50" height="50" relative="1" as="geometry"><mxPoint x="130" y="408" as="sourcePoint"/><mxPoint x="180" y="358" as="targetPoint"/></mxGeometry></mxCell><mxCell id="17" value="" style="shape=flexArrow;endArrow=classic;html=1;strokeColor=#000000;exitX=1;exitY=0.5;exitDx=0;exitDy=0;entryX=0;entryY=0.5;entryDx=0;entryDy=0;" edge="1" parent="1" source="5" target="8"><mxGeometry width="50" height="50" relative="1" as="geometry"><mxPoint x="200" y="458" as="sourcePoint"/><mxPoint x="250" y="408" as="targetPoint"/></mxGeometry></mxCell><mxCell id="18" value="&lt;font color=&quot;#000000&quot;&gt;......&lt;/font&gt;" style="rounded=0;whiteSpace=wrap;html=1;strokeColor=#000000;fillColor=none;gradientColor=none;" vertex="1" parent="1"><mxGeometry x="325" y="177" width="150" height="30" as="geometry"/></mxCell><mxCell id="19" value="&lt;font color=&quot;#000000&quot;&gt;完整的BeanDefinition对象&lt;/font&gt;" style="rounded=0;whiteSpace=wrap;html=1;strokeColor=#000000;fillColor=none;gradientColor=none;" vertex="1" parent="1"><mxGeometry x="344" y="37.5" width="110" height="30" as="geometry"/></mxCell><mxCell id="20" value="&lt;div&gt;&lt;span style=&quot;color: rgb(0 , 0 , 0)&quot;&gt;eg：&lt;/span&gt;&lt;/div&gt;&lt;font color=&quot;#000000&quot;&gt;&lt;div&gt;&lt;span&gt;（1）PropertySourcesPlaceholderConfigurer&lt;/span&gt;&lt;/div&gt;&lt;div&gt;&lt;span&gt;（2）ConfigurationClassPostProcessor&lt;/span&gt;&lt;/div&gt;&lt;div&gt;&lt;span&gt;（3）......&lt;/span&gt;&lt;/div&gt;&lt;/font&gt;" style="shape=note;whiteSpace=wrap;html=1;backgroundOutline=1;darkOpacity=0.05;gradientColor=none;fillColor=#FFFFCC;strokeColor=none;align=left;" vertex="1" parent="1"><mxGeometry x="60" y="98" width="250" height="80" as="geometry"/></mxCell><mxCell id="21" value="&lt;font color=&quot;#000000&quot;&gt;&lt;b&gt;Bean实例化&lt;/b&gt;&lt;/font&gt;" style="rounded=0;whiteSpace=wrap;html=1;gradientColor=none;fillColor=none;strokeColor=#000000;" vertex="1" parent="1"><mxGeometry x="605" y="37.5" width="100" height="27" as="geometry"/></mxCell><mxCell id="23" value="" style="endArrow=classic;html=1;strokeColor=#000000;exitX=0.5;exitY=0;exitDx=0;exitDy=0;entryX=0.5;entryY=1;entryDx=0;entryDy=0;" edge="1" parent="1" source="8" target="9"><mxGeometry width="50" height="50" relative="1" as="geometry"><mxPoint x="480" y="258" as="sourcePoint"/><mxPoint x="403" y="258" as="targetPoint"/></mxGeometry></mxCell><mxCell id="24" value="" style="endArrow=classic;html=1;strokeColor=#000000;exitX=0.5;exitY=0;exitDx=0;exitDy=0;entryX=0.5;entryY=1;entryDx=0;entryDy=0;" edge="1" parent="1" source="9" target="18"><mxGeometry width="50" height="50" relative="1" as="geometry"><mxPoint x="510" y="258" as="sourcePoint"/><mxPoint x="560" y="208" as="targetPoint"/></mxGeometry></mxCell><mxCell id="25" value="" style="endArrow=classic;html=1;strokeColor=#000000;exitX=0.5;exitY=0;exitDx=0;exitDy=0;entryX=0.5;entryY=1;entryDx=0;entryDy=0;" edge="1" parent="1" source="18" target="10"><mxGeometry width="50" height="50" relative="1" as="geometry"><mxPoint x="520" y="258" as="sourcePoint"/><mxPoint x="570" y="208" as="targetPoint"/></mxGeometry></mxCell><mxCell id="26" value="" style="endArrow=classic;html=1;strokeColor=#000000;exitX=0.5;exitY=0;exitDx=0;exitDy=0;entryX=0.5;entryY=1;entryDx=0;entryDy=0;" edge="1" parent="1" source="10" target="19"><mxGeometry width="50" height="50" relative="1" as="geometry"><mxPoint x="490" y="158" as="sourcePoint"/><mxPoint x="540" y="108" as="targetPoint"/></mxGeometry></mxCell><mxCell id="27" value="" style="endArrow=classic;html=1;strokeColor=#000000;exitX=1;exitY=0.5;exitDx=0;exitDy=0;dashed=1;edgeStyle=orthogonalEdgeStyle;" edge="1" parent="1" source="8"><mxGeometry width="50" height="50" relative="1" as="geometry"><mxPoint x="454" y="301" as="sourcePoint"/><mxPoint x="608" y="53" as="targetPoint"/><Array as="points"><mxPoint x="493" y="313"/><mxPoint x="493" y="53"/></Array></mxGeometry></mxCell><mxCell id="28" value="" style="shape=flexArrow;endArrow=classic;html=1;strokeColor=#000000;exitX=1;exitY=0.5;exitDx=0;exitDy=0;entryX=0;entryY=0.5;entryDx=0;entryDy=0;width=12;endSize=7.67;" edge="1" parent="1" source="19" target="21"><mxGeometry width="50" height="50" relative="1" as="geometry"><mxPoint x="580" y="188" as="sourcePoint"/><mxPoint x="600" y="93" as="targetPoint"/></mxGeometry></mxCell><mxCell id="30" value="&lt;font color=&quot;#000000&quot;&gt;Spring Bean的生命周期：&lt;br&gt;Bean对象从创建到使用、销毁的过程&lt;br&gt;&lt;/font&gt;" style="shape=note;whiteSpace=wrap;html=1;backgroundOutline=1;darkOpacity=0.05;strokeColor=#000000;fillColor=#D5E8D4;gradientColor=none;align=left;" vertex="1" parent="1"><mxGeometry x="800" y="88" width="211" height="52" as="geometry"/></mxCell><mxCell id="32" value="&lt;font color=&quot;#000000&quot;&gt;&lt;b&gt;初始化&lt;/b&gt;&lt;br&gt;&lt;br&gt;&lt;br&gt;&lt;br&gt;&lt;br&gt;&lt;/font&gt;&lt;br&gt;&lt;br&gt;&lt;br&gt;&lt;br&gt;&lt;br&gt;&lt;br&gt;&lt;br&gt;&lt;br&gt;&lt;br&gt;&lt;br&gt;&lt;br&gt;&lt;br&gt;&lt;br&gt;&lt;br&gt;" style="rounded=0;whiteSpace=wrap;html=1;strokeColor=#000000;gradientColor=none;fillColor=#9AC7BF;" vertex="1" parent="1"><mxGeometry x="540" y="80" width="230" height="280" as="geometry"/></mxCell><mxCell id="33" value="&lt;div&gt;&lt;span style=&quot;color: rgb(0 , 0 , 0)&quot;&gt;属性赋值&lt;/span&gt;&lt;/div&gt;&lt;font color=&quot;#000000&quot;&gt;&lt;div&gt;&lt;span&gt;（1）自定义属性赋值&lt;/span&gt;&lt;/div&gt;&lt;div&gt;&lt;span&gt;（2）容器属性赋值 eg:BeanFacotry等&lt;/span&gt;&lt;/div&gt;&lt;/font&gt;" style="rounded=0;whiteSpace=wrap;html=1;strokeColor=#000000;gradientColor=none;align=left;fillColor=#67AB9F;" vertex="1" parent="1"><mxGeometry x="550" y="105" width="210" height="48" as="geometry"/></mxCell><mxCell id="34" value="&lt;font color=&quot;#000000&quot;&gt;执行BeanPostProcessor的前置增强处理。 eg：设置Environment等容器属性&lt;/font&gt;" style="rounded=0;whiteSpace=wrap;html=1;strokeColor=#000000;gradientColor=none;align=left;fillColor=#67AB9F;" vertex="1" parent="1"><mxGeometry x="550" y="163" width="210" height="44" as="geometry"/></mxCell><mxCell id="35" value="&lt;font color=&quot;#000000&quot;&gt;执行初始化方法&lt;br&gt;（1）如果实现了InitializingBean，则执行afterPropertiesSet方法&lt;br&gt;（2）如果配置了init-method方法，则执行&lt;br&gt;&lt;/font&gt;" style="rounded=0;whiteSpace=wrap;html=1;strokeColor=#000000;gradientColor=none;align=left;fillColor=#67AB9F;" vertex="1" parent="1"><mxGeometry x="550" y="217" width="210" height="90" as="geometry"/></mxCell><mxCell id="36" value="&lt;font color=&quot;#000000&quot;&gt;执行BeanPostProcessor的后置增强处理。&amp;nbsp; &amp;nbsp;eg：AOP&lt;/font&gt;" style="rounded=0;whiteSpace=wrap;html=1;strokeColor=#000000;gradientColor=none;align=left;fillColor=#67AB9F;" vertex="1" parent="1"><mxGeometry x="550" y="318" width="210" height="35" as="geometry"/></mxCell><mxCell id="37" value="&lt;font color=&quot;#000000&quot;&gt;使用Bean&lt;/font&gt;" style="rounded=0;whiteSpace=wrap;html=1;strokeColor=#000000;fillColor=#D5E8D4;gradientColor=none;" vertex="1" parent="1"><mxGeometry x="595" y="383" width="120" height="30" as="geometry"/></mxCell><mxCell id="38" value="&lt;font color=&quot;#000000&quot;&gt;销毁Bean&lt;/font&gt;" style="rounded=0;whiteSpace=wrap;html=1;strokeColor=#000000;fillColor=#D5E8D4;gradientColor=none;" vertex="1" parent="1"><mxGeometry x="595" y="430" width="120" height="30" as="geometry"/></mxCell><mxCell id="40" value="" style="endArrow=classic;html=1;strokeColor=#000000;exitX=0.5;exitY=1;exitDx=0;exitDy=0;entryX=0.5;entryY=0;entryDx=0;entryDy=0;" edge="1" parent="1" source="21" target="32"><mxGeometry width="50" height="50" relative="1" as="geometry"><mxPoint x="390" y="410" as="sourcePoint"/><mxPoint x="440" y="360" as="targetPoint"/></mxGeometry></mxCell><mxCell id="44" value="" style="endArrow=classic;html=1;strokeColor=#000000;exitX=0.5;exitY=1;exitDx=0;exitDy=0;entryX=0.5;entryY=0;entryDx=0;entryDy=0;" edge="1" parent="1" source="29" target="37"><mxGeometry width="50" height="50" relative="1" as="geometry"><mxPoint x="460" y="440" as="sourcePoint"/><mxPoint x="510" y="390" as="targetPoint"/></mxGeometry></mxCell><mxCell id="45" value="" style="endArrow=classic;html=1;strokeColor=#000000;exitX=0.5;exitY=1;exitDx=0;exitDy=0;entryX=0.5;entryY=0;entryDx=0;entryDy=0;" edge="1" parent="1" source="37" target="38"><mxGeometry width="50" height="50" relative="1" as="geometry"><mxPoint x="440" y="450" as="sourcePoint"/><mxPoint x="490" y="400" as="targetPoint"/></mxGeometry></mxCell></root></mxGraphModel></diagram></mxfile>